<svg width="40" height="40" viewBox="0 0 40 40" fill="none" xmlns="http://www.w3.org/2000/svg">
<path d="M31.4423 38.1555H11.3131V32.2845L13.1583 30.7748L14.3325 28.2587C14.3325 28.2587 13.9057 26.1224 14.5841 23.8974C15.5754 20.6463 19.3648 14.6715 19.3648 14.6715C19.3648 14.6715 18.1067 16.5167 15.339 15.8457C12.5712 15.1747 9.80344 17.1877 9.80344 17.1877L8.4615 13.1618L13.1583 10.3102C13.1583 10.3102 13.1206 8.71117 14.3325 7.79406C15.5444 6.87696 19.3648 5.61341 19.3648 5.61341V1.92307C19.3648 1.92307 27.5624 7.25025 29.4294 12.4909C31.2963 17.7315 28.9261 28.2587 28.9261 28.2587L29.5971 30.7748L31.4423 32.2845V38.1555Z" fill="white"/>
<path d="M29.5971 30.7748L31.4423 32.2845V38.1555H11.3131V32.2845L13.1583 30.7748M29.5971 30.7748L28.9261 28.2587M29.5971 30.7748H13.1583M28.9261 28.2587C28.9261 28.2587 31.2963 17.7315 29.4294 12.4909C27.5624 7.25025 19.3648 1.92307 19.3648 1.92307V5.61341C19.3648 5.61341 15.5444 6.87696 14.3325 7.79406C13.1206 8.71117 13.1583 10.3102 13.1583 10.3102L8.4615 13.1618L9.80344 17.1877C9.80344 17.1877 12.5712 15.1747 15.339 15.8457C18.1067 16.5167 19.3648 14.6715 19.3648 14.6715C19.3648 14.6715 15.5754 20.6463 14.5841 23.8974C13.9057 26.1225 14.3325 28.2587 14.3325 28.2587M28.9261 28.2587H14.3325M14.3325 28.2587L13.1583 30.7748" stroke="url(#paint0_linear_2_271)" stroke-width="0.723179"/>
<defs>
<linearGradient id="paint0_linear_2_271" x1="19.9519" y1="1.92307" x2="19.9519" y2="38.1555" gradientUnits="userSpaceOnUse">
<stop stop-color="#38180B"/>
<stop offset="1" stop-color="#3A1A0C"/>
</linearGradient>
</defs>
</svg>
